<svg xmlns="http://www.w3.org/2000/svg" viewBox="0 0 266 452.2"><title>Ресурс 1</title><g id="Слой_2" data-name="Слой 2"><g id="Capa_1" data-name="Capa 1"><path d="M264.63,433.33,184.28,272V169.62a15,15,0,0,0-2-29.87H83.72a15,15,0,0,0-2,29.87V272L1.37,433.33A13.05,13.05,0,0,0,13.05,452.2H253a13,13,0,0,0,11.68-18.87Zm-180.8-107,24-48.19V169.76h50.36v14.87H138a10,10,0,0,0,0,20h20.21v32.19H138a10,10,0,1,0,0,20h20.21v21.27l24,48.19Z"/><path d="M158.11,33.77a16.89,16.89,0,1,0-16.88-16.89A16.91,16.91,0,0,0,158.11,33.77Z"/><path d="M155,67A23.38,23.38,0,1,0,178.34,90.4,23.41,23.41,0,0,0,155,67Z"/><path d="M109.27,103.62a29.93,29.93,0,0,0,18-6,28.59,28.59,0,0,1,11.37-30.68,30.13,30.13,0,1,0-29.41,36.69Z"/></g></g></svg>