<?xml version="1.0" encoding="utf-8"?>
<!-- Generator: Adobe Illustrator 22.1.0, SVG Export Plug-In . SVG Version: 6.00 Build 0)  -->
<svg version="1.1" id="Capa_1" xmlns="http://www.w3.org/2000/svg" xmlns:xlink="http://www.w3.org/1999/xlink" x="0px" y="0px"
	 viewBox="0 0 512 512" style="enable-background:new 0 0 512 512;" xml:space="preserve">
<g>
	<g>
		<path d="M480,400V112c0-17.6-14.3-32-32-32H64c-17.6,0-32,14.4-32,32v288H0v16c0,8.8,7.2,16,16,16h480c8.8,0,16-7.2,16-16v-16H480
			z M448,368H64v-84.9l75.5-28.3c8.8,10.4,21.8,17.2,36.5,17.2c17.4,0,32.6-9.4,41-23.4l72.2,14.2c4.7,21.5,23.9,37.8,46.8,37.8
			c26.5,0,48-21.5,48-48c0-2.5-0.4-4.9-0.7-7.3l64.7-40.5V368z M448,167.1l-79.9,50c-8.5-7.7-19.7-12.5-32.1-12.5
			c-18.7,0-34.7,10.8-42.7,26.4l-70-13.8C220,194,200.2,176,176,176c-26.5,0-48,21.5-48,48c0,0.3,0.1,0.6,0.1,0.9l-64.1,24V112h384
			V167.1z"/>
	</g>
</g>
</svg>
