<?xml version="1.0" encoding="utf-8"?>
<!-- Generator: Adobe Illustrator 22.1.0, SVG Export Plug-In . SVG Version: 6.00 Build 0)  -->
<svg version="1.1" id="Capa_1" xmlns="http://www.w3.org/2000/svg" xmlns:xlink="http://www.w3.org/1999/xlink" x="0px" y="0px"
	 viewBox="0 0 485.2 485.2" style="enable-background:new 0 0 485.2 485.2;" xml:space="preserve">
<g>
	<g>
		<g>
			<g>
				<path d="M440.8,176.7h-252c-24.4,0-44.4,20-44.4,44.4v159.6c0,24.4,20,44.4,44.4,44.4h252c24.4,0,44.4-20,44.4-44.4V221.1
					C485.3,196.6,465.2,176.7,440.8,176.7z M461.3,381.3c0,8.8-7.2,16.1-16.1,16.1H188.3c-8.8,0-16.1-7.2-16.1-16.1V269h289.1V381.3
					z M461.3,226.7H172.2v-6.1c0-8.8,7.2-16.1,16.1-16.1h256.9c8.8,0,16.1,7.2,16.1,16.1V226.7z"/>
			</g>
		</g>
		<g>
			<path d="M185.6,149.3h156.3l-31.8-64.4c-10.9-22-37.6-31-59.6-20.1L24.7,176.4C2.7,187.3-6.3,214,4.6,236l70.8,143.1
				c9.5,19.3,31.4,28.7,51.5,23.2c-6-10.1-9.4-21.8-9.4-34.3V217.5C117.4,180,148.1,149.3,185.6,149.3z"/>
		</g>
		<g>
			<path d="M217.7,380.1c8.7,0,16.6-3.9,21.8-10.1c5.3,6.2,13.1,10.1,21.8,10.1c15.9,0,28.8-12.9,28.8-28.8s-12.9-28.8-28.8-28.8
				c-8.7,0-16.6,3.9-21.8,10.1c-5.3-6.2-13.1-10.1-21.8-10.1c-15.9,0-28.8,12.9-28.8,28.8S201.8,380.1,217.7,380.1z"/>
		</g>
	</g>
</g>
</svg>
