<?xml version="1.0" encoding="utf-8"?>
<!-- Generator: Adobe Illustrator 22.1.0, SVG Export Plug-In . SVG Version: 6.00 Build 0)  -->
<svg version="1.1" id="Capa_1" xmlns="http://www.w3.org/2000/svg" xmlns:xlink="http://www.w3.org/1999/xlink" x="0px" y="0px"
	 viewBox="0 0 480 480" style="enable-background:new 0 0 480 480;" xml:space="preserve">
<g>
	<g>
		<path d="M432.2,219.5L432,80c0-6.7-4.2-12.7-10.5-15l-176-64c-3.5-1.3-7.4-1.3-10.9,0l-176,64C52.2,67.3,48,73.3,48,80l-0.2,139.5
			C46.8,333.7,46,416.2,234.9,479.2c1.6,0.5,3.4,0.8,5.1,0.8s3.4-0.3,5.1-0.8C434,416.2,433.2,333.7,432.2,219.5z M240,96
			c35.3,0,64,28.7,64,64s-28.7,64-64,64s-64-28.7-64-64S204.7,96,240,96z M320,352H160c-8.8,0-16-7.2-16-16c0-44.1,35.9-80,80-80h32
			c44.1,0,80,35.9,80,80C336,344.8,328.8,352,320,352z"/>
	</g>
</g>
</svg>
