<?xml version="1.0" encoding="utf-8"?>
<!-- Generator: Adobe Illustrator 22.1.0, SVG Export Plug-In . SVG Version: 6.00 Build 0)  -->
<svg version="1.1" id="Capa_1" xmlns="http://www.w3.org/2000/svg" xmlns:xlink="http://www.w3.org/1999/xlink" x="0px" y="0px"
	 viewBox="0 0 512 512" style="enable-background:new 0 0 512 512;" xml:space="preserve">
<g>
	<g>
		<circle cx="416" cy="64" r="64"/>
	</g>
</g>
<g>
	<g>
		<path d="M511.9,334.4l-14.6-145.6c-1.6-16.4-15.3-28.8-31.8-28.8H448c-4.3,0-8.3,1.7-11.3,4.7L416,185.4l-20.7-20.7
			c-3-3-7.1-4.7-11.3-4.7h-17.5c-16.5,0-30.2,12.4-31.8,28.8l-14.6,145.6c-0.5,4.5,1,9,4,12.4c3,3.3,7.3,5.2,11.9,5.2h17.5
			l13.1,131.2c1.6,16.4,15.3,28.8,31.8,28.8h35.1c16.5,0,30.2-12.4,31.8-28.8L478.5,352H496c4.5,0,8.8-1.9,11.9-5.2
			C510.9,343.4,512.4,338.9,511.9,334.4z"/>
	</g>
</g>
<g>
	<g>
		<path d="M80,320H16c-8.8,0-16,7.2-16,16v160c0,8.8,7.2,16,16,16h64c8.8,0,16-7.2,16-16V336C96,327.2,88.8,320,80,320z"/>
	</g>
</g>
<g>
	<g>
		<path d="M240,160h-64c-8.8,0-16,7.2-16,16v320c0,8.8,7.2,16,16,16h64c8.8,0,16-7.2,16-16V176C256,167.2,248.8,160,240,160z"/>
	</g>
</g>
</svg>
