<?xml version="1.0" encoding="utf-8"?>
<!-- Generator: Adobe Illustrator 22.1.0, SVG Export Plug-In . SVG Version: 6.00 Build 0)  -->
<svg version="1.1" id="Capa_1" xmlns="http://www.w3.org/2000/svg" xmlns:xlink="http://www.w3.org/1999/xlink" x="0px" y="0px"
	 viewBox="0 0 512 512" style="enable-background:new 0 0 512 512;" xml:space="preserve">
<g>
	<g>
		<circle cx="96" cy="64" r="64"/>
	</g>
</g>
<g>
	<g>
		<path d="M191.9,334.4l-14.6-145.6c-1.6-16.4-15.3-28.8-31.8-28.8H128c-4.3,0-8.3,1.7-11.3,4.7L96,185.3l-20.7-20.7
			c-3-3-7.1-4.7-11.3-4.7H46.5c-16.5,0-30.2,12.4-31.8,28.8L0.1,334.4c-0.4,4.5,1,9,4.1,12.4c3,3.3,7.3,5.2,11.8,5.2h17.5
			l13.1,131.2C48.2,499.6,62,512,78.5,512h35c16.5,0,30.2-12.4,31.8-28.8L158.5,352H176c4.5,0,8.8-1.9,11.9-5.2
			C190.9,343.4,192.4,338.9,191.9,334.4z"/>
	</g>
</g>
<g>
	<g>
		<path d="M496,192h-40.3c-5.8-16.7-14.7-32.1-26-45.5l20.1-34.9c2.1-3.7,2.7-8,1.6-12.1c-1.1-4.1-3.8-7.6-7.5-9.7l-55.7-32
			c-3.6-2.1-8-2.6-12.2-1.6c-4.1,1.1-7.6,3.8-9.7,7.5l-19.9,34.7c-17.1-3.3-35.6-3.3-52.7,0l-20-34.8c-4.4-7.6-14.2-10.3-21.9-5.9
			l-55.7,32c-3.7,2.1-6.4,5.6-7.5,9.7c-1.1,4.1-0.5,8.5,1.6,12.1l20,34.9c-3.7,4.4-6.7,9.2-9.8,14c4.4,7.6,7.8,15.8,8.7,25.1
			l14.6,145.6c1.3,13.4-3.1,26.8-12.1,36.9l-0.1,0.1c-6,6.6-13.8,11.1-22.2,13.6c1.2,3.4,3.5,6.4,6.8,8.4l55.7,32
			c2.4,1.4,5.2,2.1,8,2.1c1.4,0,2.8-0.2,4.2-0.6c4.1-1.1,7.6-3.8,9.7-7.5l19.9-34.7c17.1,3.3,35.6,3.3,52.7,0l19.9,34.7
			c2.1,3.7,5.6,6.4,9.7,7.5c4.1,1.1,8.5,0.6,12.2-1.6l55.7-32c3.7-2.1,6.4-5.6,7.5-9.7c1.1-4.1,0.6-8.4-1.6-12.1l-20.1-34.9
			c11.5-13.3,20.4-28.7,26.1-45.4H496c8.8,0,16-7.2,16-16v-64C512,199.2,504.8,192,496,192z M320,304c-35.3,0-64-28.7-64-64
			s28.7-64,64-64s64,28.7,64,64S355.3,304,320,304z"/>
	</g>
</g>
</svg>
