<?xml version="1.0" encoding="utf-8"?>
<!-- Generator: Adobe Illustrator 22.1.0, SVG Export Plug-In . SVG Version: 6.00 Build 0)  -->
<svg version="1.1" id="Capa_1" xmlns="http://www.w3.org/2000/svg" xmlns:xlink="http://www.w3.org/1999/xlink" x="0px" y="0px"
	 viewBox="0 0 512 512" style="enable-background:new 0 0 512 512;" xml:space="preserve">
<g>
	<g>
		<path d="M320,256v16c0,8.8-7.2,16-16,16h-96c-8.8,0-16-7.2-16-16v-16H32v192c0,17.7,14.3,32,32,32h384c17.7,0,32-14.3,32-32V256
			H320z"/>
	</g>
</g>
<g>
	<g>
		<path d="M496,96H352V48c0-8.8-7.2-16-16-16H176c-8.8,0-16,7.2-16,16v48H16c-8.8,0-16,7.2-16,16v96c0,8.8,7.2,16,16,16h176v-16
			c0-8.8,7.2-16,16-16h96c8.8,0,16,7.2,16,16v16h176c8.8,0,16-7.2,16-16v-96C512,103.2,504.8,96,496,96z M320,96H192V64h128V96z"/>
	</g>
</g>
<g>
	<g>
		<rect x="224" y="224" width="64" height="32"/>
	</g>
</g>
</svg>
